<svg xmlns="http://www.w3.org/2000/svg" width="86.827" height="97" viewBox="0 0 86.827 97"><defs><style>.a{fill:rgba(0,0,0,0.01);}.b{fill:#fdfdfd;font-size:8px;font-family:Zenon-Black, Zenon;font-weight:800;letter-spacing:0.025em;}.c,.d,.e{stroke:none;}.d{fill:#020202;}.e{fill:rgba(112,112,112,0);}</style></defs><g class="a" transform="translate(71.289 4.824) rotate(84)"><path class="c" d="M 84.27079772949219 71.18181610107422 L 0.8785092234611511 71.18181610107422 L 42.57465362548828 0.9791300296783447 L 84.27079772949219 71.18181610107422 Z"/><path class="d" d="M 42.57465362548828 1.958259582519531 L 1.757026672363281 70.68180847167969 L 83.39227294921875 70.68180847167969 L 42.57465362548828 1.958259582519531 M 42.57465362548828 0 L 85.14929962158203 71.68180847167969 L -7.62939453125e-06 71.68180847167969 L 42.57465362548828 0 Z"/></g><g transform="translate(86.827 63) rotate(180)"><path class="c" d="M38.486,3.864a3,3,0,0,1,5.029,0l35.468,54.5A3,3,0,0,1,76.468,63H5.532a3,3,0,0,1-2.514-4.636Z"/><path class="e" d="M 40.99999237060547 3.499988555908203 C 40.3106803894043 3.499988555908203 39.69970321655273 3.831333160400391 39.32372665405273 4.409076690673828 L 3.855461120605469 58.90908813476562 C 3.448829650878906 59.53389739990234 3.418251037597656 60.29815292358398 3.773635864257812 60.95346450805664 C 4.1290283203125 61.6087646484375 4.786262512207031 62 5.53173828125 62 L 76.46826171875 62 C 77.21373748779297 62 77.87097930908203 61.6087646484375 78.22637176513672 60.95345306396484 C 78.58175659179688 60.29814147949219 78.55117034912109 59.53389739990234 78.14453887939453 58.90908813476562 L 42.6762809753418 4.409076690673828 C 42.3002815246582 3.831340789794922 41.68930435180664 3.499988555908203 40.99999237060547 3.499988555908203 M 41 2.499988555908203 C 41.96139144897461 2.499988555908203 42.92278671264648 2.954532623291016 43.5144157409668 3.863620758056641 L 78.98268127441406 58.36363220214844 C 80.28145599365234 60.35929870605469 78.84933471679688 63 76.46826171875 63 L 5.53173828125 63 C 3.150657653808594 63 1.718551635742188 60.35929870605469 3.017318725585938 58.36363220214844 L 38.48558044433594 3.863620758056641 C 39.07720947265625 2.954532623291016 40.03860473632812 2.499988555908203 41 2.499988555908203 Z"/></g><text class="b" transform="translate(45.827 14)"><tspan x="-18.836" y="0">MAJIME </tspan><tspan x="-10.832" y="14">ZINE</tspan></text></svg>